<?xml version="1.0" encoding="UTF-8"?>
<svg version="1.1" xmlns="http://www.w3.org/2000/svg" width="124" height="124">
<path d="M0 0 C1.23306885 0.00142502 2.4661377 0.00285004 3.73657227 0.00431824 C4.75631638 0.00147072 4.75631638 0.00147072 5.79666138 -0.00143433 C8.04888357 -0.00514579 10.30078487 0.00556723 12.55297852 0.01676941 C14.11474571 0.01796114 15.67651362 0.01841439 17.23828125 0.01815796 C20.51347329 0.01972347 23.78855613 0.02801814 27.0637207 0.04142761 C31.2672571 0.05841756 35.4706734 0.06224198 39.67424011 0.06148243 C42.89979199 0.06175404 46.12531748 0.06723378 49.3508606 0.07448387 C50.90104981 0.07767172 52.45124201 0.07963822 54.00143433 0.08037758 C56.16580321 0.08253992 58.33004342 0.09128183 60.49438477 0.10197449 C62.34398804 0.10769218 62.34398804 0.10769218 64.23095703 0.11352539 C67.11547852 0.24723816 67.11547852 0.24723816 69.11547852 1.24723816 C69.11547852 9.82723816 69.11547852 18.40723816 69.11547852 27.24723816 C66.5611024 28.52442622 64.6995907 28.4068528 61.83959961 28.45256042 C60.18811417 28.48247826 60.18811417 28.48247826 58.50326538 28.51300049 C56.71416245 28.53806923 56.71416245 28.53806923 54.88891602 28.56364441 C53.67096344 28.58442551 52.45301086 28.6052066 51.19815063 28.62661743 C47.29565231 28.692164 43.39308501 28.75102171 39.49047852 28.80973816 C36.84984629 28.85291851 34.20922113 28.89653264 31.56860352 28.94059753 C25.08430209 29.0478506 18.59993157 29.14960745 12.11547852 29.24723816 C11.7171582 29.98002991 11.31883789 30.71282166 10.90844727 31.46781921 C10.37864258 32.44110168 9.84883789 33.41438416 9.30297852 34.41716003 C8.7809082 35.37682678 8.25883789 36.33649353 7.72094727 37.32524109 C5.24423705 41.83292148 2.68076904 46.28957454 0.11547852 50.74723816 C-4.49005212 58.76819938 -4.49005212 58.76819938 -8.94702148 66.87223816 C-9.41237305 67.6650116 -9.87772461 68.45778503 -10.35717773 69.27458191 C-11.69945145 71.88703791 -12.65069948 74.36768938 -13.63061523 77.12614441 C-15.84365778 82.64045277 -17.89349198 87.7434807 -22.88452148 91.24723816 C-32.58394778 93.64902709 -43.07284477 92.39417812 -52.88452148 91.24723816 C-52.1009991 86.59117371 -50.26560217 83.25123619 -47.75952148 79.30973816 C-44.0190459 73.27029671 -40.74070102 67.17766183 -37.68530273 60.75895691 C-36.24088555 57.94218674 -34.72535351 55.2800923 -33.08374023 52.57926941 C-29.64113789 46.91139455 -26.50878175 41.09502222 -23.38452148 35.24723816 C-19.80278958 28.54318889 -16.14615069 21.92611021 -12.19702148 15.43083191 C-10.05112427 11.86072315 -8.12676725 8.17880004 -6.18139648 4.49723816 C-4.36619226 1.34796818 -3.71157298 0.31812641 0 0 Z " fill="#FCFCFC" transform="translate(52.884521484375,16.752761840820313)"/>
<path d="M0 0 C1.39508789 -0.00193359 1.39508789 -0.00193359 2.81835938 -0.00390625 C3.78193359 -0.00003906 4.74550781 0.00382812 5.73828125 0.0078125 C6.71345703 0.00394531 7.68863281 0.00007813 8.69335938 -0.00390625 C9.61955078 -0.00261719 10.54574219 -0.00132813 11.5 0 C12.77363403 0.00169189 12.77363403 0.00169189 14.07299805 0.00341797 C16.05078125 0.1328125 16.05078125 0.1328125 17.05078125 1.1328125 C17.14464506 3.0046219 17.16821929 4.8799931 17.16430664 6.75415039 C17.16423111 7.95531998 17.16415558 9.15648956 17.16407776 10.39405823 C17.15891647 11.7013237 17.15375519 13.00858917 17.1484375 14.35546875 C17.14657323 15.69925382 17.14514937 17.04303957 17.14414978 18.38682556 C17.14032527 21.92963527 17.13049557 25.4724042 17.1194458 29.01519775 C17.10923024 32.62796477 17.10465185 36.24073834 17.09960938 39.85351562 C17.08887323 46.94663289 17.07127697 54.03971575 17.05078125 61.1328125 C8.47078125 61.1328125 -0.10921875 61.1328125 -8.94921875 61.1328125 C-9.69157282 57.42104213 -10.07528925 54.63558539 -10.07861328 50.94702148 C-10.08176544 49.93925156 -10.0849176 48.93148163 -10.08816528 47.89317322 C-10.08614105 46.81596512 -10.08411682 45.73875702 -10.08203125 44.62890625 C-10.08298798 43.51346939 -10.0839447 42.39803253 -10.08493042 41.24879456 C-10.08560998 38.89445947 -10.08377132 36.54012249 -10.07958984 34.18579102 C-10.07423344 30.58019818 -10.07954505 26.97472962 -10.0859375 23.36914062 C-10.08527678 21.08072889 -10.08399574 18.79231724 -10.08203125 16.50390625 C-10.08405548 15.42467392 -10.08607971 14.34544159 -10.08816528 13.23350525 C-10.08501312 12.22888748 -10.08186096 11.22426971 -10.07861328 10.18920898 C-10.07781769 9.30716293 -10.07702209 8.42511688 -10.07620239 7.51634216 C-9.95561756 5.2529205 -9.5831144 3.30284035 -8.94921875 1.1328125 C-5.8994878 0.24585826 -3.17153249 0.00419634 0 0 Z " fill="#FCFCFC" transform="translate(76.94921875,46.8671875)"/>
<path d="M0 0 C1.17691406 0.00257812 2.35382812 0.00515625 3.56640625 0.0078125 C5.32791016 0.00394531 5.32791016 0.00394531 7.125 0 C10.12890625 0.1328125 10.12890625 0.1328125 12.12890625 1.1328125 C12.12890625 10.0428125 12.12890625 18.9528125 12.12890625 28.1328125 C2.55890625 28.1328125 -7.01109375 28.1328125 -16.87109375 28.1328125 C-15.98440123 22.81265737 -14.7503034 19.63590065 -12.05859375 15.1953125 C-11.71505859 14.61330078 -11.37152344 14.03128906 -11.01757812 13.43164062 C-10.32582189 12.25967837 -9.63036382 11.08989295 -8.93115234 9.92236328 C-7.81984691 8.04629952 -6.74402666 6.1525788 -5.671875 4.25390625 C-3.30572271 0.15291779 -3.30572271 0.15291779 0 0 Z " fill="#FBFBFB" transform="translate(51.87109375,79.8671875)"/>
<path d="M0 0 C0.66 0.33 1.32 0.66 2 1 C-1.27766115 7.0259406 -4.56678393 13.04409801 -7.921875 19.02734375 C-8.99771044 20.99581077 -10.0094819 22.98744732 -11 25 C-11.66 25 -12.32 25 -13 25 C-11.68776814 20.6280592 -9.97640622 16.96953086 -7.625 13.0625 C-7.00753906 12.02738281 -6.39007813 10.99226563 -5.75390625 9.92578125 C-4.88572266 8.47751953 -4.88572266 8.47751953 -4 7 C-2.65522362 4.67295218 -1.32773993 2.33682228 0 0 Z " fill="#F0F0F0" transform="translate(48,81)"/>
</svg>
